# xmcd CD database file
#
# Track frame offsets:
#	150
#	15258
#	28691
#	39649
#	62232
#	70865
#	84789
#	117347
#	132353
#	148036
#	160644
#	173852
#	201346
#
# Disc length: 2859 seconds
#
# Revision: 1
# Processed by: cddbd v1.5PL3 Copyright (c) Steve Scherf et al.
# Submitted via: CDex 1.50
#
DISCID=ac0b290d
DTITLE=SongnLife - 탄핵무효 민주수호를 위한 특별제작 앨범
DYEAR=2004
DGENRE=Country
TTITLE0=너흰 아니야
TTITLE1=격문(檄文) 1
TTITLE2=격문(檄文) 2 - 토벌가
TTITLE3=대한민국을 위하여
TTITLE4=헌법 제1조
TTITLE5=반딧불이
TTITLE6=캐롤 모음
TTITLE7=통일합시다
TTITLE8=늙지 마시라
TTITLE9=하나의 고향
TTITLE10=우리가 희망이다
TTITLE11=행복해지고 싶어
TTITLE12=투표하러 가요 2004
EXTD=YEAR: 2004
EXTT0=
EXTT1=
EXTT2=
EXTT3=
EXTT4=
EXTT5=
EXTT6=
EXTT7=
EXTT8=
EXTT9=
EXTT10=
EXTT11=
EXTT12=
PLAYORDER=
